<svg width="16" height="12" viewBox="0 0 16 12" fill="none" xmlns="http://www.w3.org/2000/svg">
<path d="M8.12727 8.39452C9.43602 8.39452 10.497 7.32246 10.497 6C10.497 4.67753 9.43602 3.60547 8.12727 3.60547C6.81852 3.60547 5.75757 4.67753 5.75757 6C5.75757 7.32246 6.81852 8.39452 8.12727 8.39452Z" stroke="#F3F3F3"/>
<path d="M14.5951 5.14914C14.9016 5.52587 15.0548 5.71345 15.0548 5.99999C15.0548 6.28654 14.9016 6.47411 14.5951 6.85085C13.4734 8.2269 10.9995 10.789 8.12738 10.789C5.2553 10.789 2.78133 8.2269 1.65967 6.85085C1.35319 6.47411 1.19995 6.28654 1.19995 5.99999C1.19995 5.71345 1.35319 5.52587 1.65967 5.14914C2.78133 3.77308 5.2553 1.21094 8.12738 1.21094C10.9995 1.21094 13.4734 3.77308 14.5951 5.14914Z" stroke="#F3F3F3"/>
</svg>
