<svg width="14" height="13" viewBox="0 0 14 13" fill="none" xmlns="http://www.w3.org/2000/svg">
<path d="M14 5.72727C14 5.38972 13.8659 5.066 13.6272 4.82732C13.3885 4.58864 13.0648 4.45455 12.7273 4.45455H8.70545L9.31636 1.54636C9.32909 1.48273 9.33545 1.41273 9.33545 1.34273C9.33545 1.08182 9.22727 0.84 9.05545 0.668182L8.38091 0L4.19364 4.18727C3.95818 4.42273 3.81818 4.74091 3.81818 5.09091V11.4545C3.81818 11.7921 3.95227 12.1158 4.19095 12.3545C4.42964 12.5932 4.75336 12.7273 5.09091 12.7273H10.8182C11.3464 12.7273 11.7982 12.4091 11.9891 11.9509L13.9109 7.46455C13.9682 7.31818 14 7.16545 14 7V5.72727ZM0 12.7273H2.54545V8.90909V5.09091H0V12.7273Z" fill="#D9D9D9"/>
</svg>
