<svg width="17" height="12" viewBox="0 0 17 12" fill="none" xmlns="http://www.w3.org/2000/svg">
<path d="M8.5 4.23766L5.56615 1.41645C5.45902 1.3133 5.3318 1.23147 5.19176 1.17562C5.05172 1.11977 4.9016 1.09101 4.75 1.09098M1 4.2384L3.93385 1.41719C4.15923 1.20046 4.45462 1.09098 4.75 1.09098M4.75 11V1.09098V11ZM12.25 1V10.9075V1ZM16 7.76159L13.0662 10.5828C12.8408 10.7995 12.5454 10.9075 12.25 10.9075M8.5 7.76085L11.4338 10.5821C11.6592 10.7988 11.9546 10.9075 12.25 10.9075" fill="#F3F3F3"/>
<path d="M8.5 4.23767L5.56615 1.41645C5.45902 1.3133 5.3318 1.23147 5.19176 1.17562C5.05172 1.11977 4.9016 1.09101 4.75 1.09098M4.75 1.09098C4.45462 1.09098 4.15923 1.20046 3.93385 1.41719L1 4.23841M4.75 1.09098V11M12.25 1V10.9075M12.25 10.9075C12.5454 10.9075 12.8408 10.7995 13.0662 10.5828L16 7.76159M12.25 10.9075C11.9546 10.9075 11.6592 10.7988 11.4338 10.5821L8.5 7.76085" stroke="#D9D9D9" stroke-linecap="round" stroke-linejoin="round"/>
</svg>
