<svg width="15" height="14" viewBox="0 0 15 14" fill="none" xmlns="http://www.w3.org/2000/svg">
<path d="M4.82428 4.22531L0.570946 4.84198L0.495612 4.85731C0.381572 4.88759 0.277609 4.94759 0.19434 5.03118C0.111072 5.11478 0.0514812 5.21897 0.0216536 5.33313C-0.00817395 5.44729 -0.00716965 5.56732 0.0245639 5.68096C0.0562974 5.7946 0.117623 5.89779 0.202279 5.97998L3.28361 8.97931L2.55695 13.216L2.54828 13.2893C2.5413 13.4073 2.56579 13.5249 2.61925 13.6303C2.6727 13.7357 2.7532 13.825 2.8525 13.889C2.9518 13.953 3.06634 13.9895 3.18438 13.9947C3.30242 13.9999 3.41972 13.9737 3.52428 13.9186L7.32828 11.9186L11.1236 13.9186L11.1903 13.9493C11.3003 13.9927 11.4199 14.0059 11.5368 13.9878C11.6537 13.9697 11.7636 13.9208 11.8553 13.8462C11.9471 13.7715 12.0173 13.6738 12.0588 13.5631C12.1004 13.4523 12.1117 13.3325 12.0916 13.216L11.3643 8.97931L14.4469 5.97931L14.4989 5.92265C14.5732 5.83116 14.6219 5.72162 14.6401 5.60518C14.6583 5.48874 14.6452 5.36957 14.6023 5.2598C14.5594 5.15004 14.4882 5.0536 14.3959 4.98032C14.3036 4.90704 14.1936 4.85954 14.0769 4.84265L9.82361 4.22531L7.92228 0.37198C7.86726 0.260336 7.78209 0.166323 7.6764 0.100583C7.57072 0.0348422 7.44874 0 7.32428 0C7.19982 0 7.07784 0.0348422 6.97215 0.100583C6.86647 0.166323 6.7813 0.260336 6.72628 0.37198L4.82428 4.22531Z" fill="#F2B42E"/>
</svg>
