<svg width="14" height="13" viewBox="0 0 14 13" fill="none" xmlns="http://www.w3.org/2000/svg">
<path d="M4.8084 4.28162L1.08674 4.82121L1.02082 4.83462C0.921033 4.86111 0.830066 4.91361 0.757206 4.98676C0.684346 5.0599 0.632204 5.15107 0.606105 5.25096C0.580006 5.35085 0.580885 5.45588 0.608652 5.55531C0.636418 5.65475 0.690079 5.74504 0.764152 5.81695L3.46032 8.44137L2.82449 12.1485L2.8169 12.2126C2.81079 12.3158 2.83222 12.4188 2.879 12.511C2.92577 12.6032 2.99621 12.6813 3.0831 12.7373C3.16999 12.7934 3.2702 12.8253 3.37349 12.8299C3.47677 12.8344 3.57941 12.8114 3.6709 12.7633L6.9994 11.0133L10.3203 12.7633L10.3787 12.7901C10.4749 12.828 10.5796 12.8397 10.6818 12.8238C10.7841 12.808 10.8803 12.7652 10.9606 12.6999C11.0409 12.6345 11.1023 12.5491 11.1386 12.4522C11.175 12.3553 11.1849 12.2504 11.1673 12.1485L10.5309 8.44137L13.2282 5.81637L13.2737 5.76679C13.3387 5.68674 13.3813 5.59089 13.3972 5.489C13.4131 5.38712 13.4017 5.28284 13.3642 5.1868C13.3267 5.09075 13.2644 5.00637 13.1836 4.94225C13.1028 4.87813 13.0065 4.83657 12.9045 4.82179L9.18282 4.28162L7.51915 0.909955C7.47101 0.812267 7.39649 0.730005 7.30401 0.672482C7.21154 0.61496 7.10481 0.584473 6.9959 0.584473C6.887 0.584473 6.78027 0.61496 6.68779 0.672482C6.59532 0.730005 6.52079 0.812267 6.47265 0.909955L4.8084 4.28162Z" fill="#F29B2E"/>
</svg>
