<svg width="14" height="16" viewBox="0 0 14 16" fill="none" xmlns="http://www.w3.org/2000/svg">
<path d="M11.0578 2.50667C10.4503 1.81291 10.1155 0.922133 10.1156 0H7.36889V11.0222C7.34814 11.6188 7.09646 12.1841 6.66694 12.5987C6.23742 13.0133 5.66364 13.2448 5.06667 13.2444C3.80444 13.2444 2.75556 12.2133 2.75556 10.9333C2.75556 9.40444 4.23111 8.25778 5.75111 8.72889V5.92C2.68444 5.51111 0 7.89333 0 10.9333C0 13.8933 2.45333 16 5.05778 16C7.84889 16 10.1156 13.7333 10.1156 10.9333V5.34222C11.2293 6.14209 12.5665 6.57124 13.9378 6.56889V3.82222C13.9378 3.82222 12.2667 3.90222 11.0578 2.50667Z" fill="#D9D9D9"/>
</svg>
