<svg width="124" height="28" viewBox="0 0 124 28" fill="none" xmlns="http://www.w3.org/2000/svg">
<g clip-path="url(#clip0_179_710)">
<path d="M21.3357 5.90853C21.2796 5.23909 21.2235 4.7734 21.1954 4.48234C21.055 2.96882 20.6339 1.86279 19.8759 1.22246C19.146 0.582129 17.995 0.261963 16.4791 0.261963C15.6649 0.261963 14.907 0.378387 14.2051 0.582129C13.5033 0.785871 12.9418 1.04783 12.5207 1.33889L11.3978 6.51976L10.1345 1.30978C9.12384 0.611235 7.86054 0.261963 6.3165 0.261963C4.211 0.261963 2.61082 0.87319 1.51596 2.06654C1.34752 3.43452 1.12293 5.90853 0.814127 9.40126C0.280734 16.1247 0 20.3451 0 22.0333C0 23.4013 0.617614 24.4782 1.85284 25.2349C2.86348 25.8753 4.01449 26.1954 5.30586 26.1954C6.59724 26.1954 7.57981 26.079 8.28164 25.8462C8.98347 25.6133 9.62916 25.2349 10.2748 24.7401L10.3871 21.0437C9.85375 20.9564 9.32035 20.7235 8.84311 20.316C8.22549 19.8212 7.6921 19.1227 7.271 18.2786C7.13063 17.9875 7.07449 17.7547 7.07449 17.5509C7.07449 17.2599 7.21485 17.1144 7.49559 17.1144H7.57981C8.08513 18.2204 8.61852 19.0354 9.20806 19.4719C9.82567 19.9085 10.5275 20.1414 11.3697 20.1414C13.026 20.1414 14.2051 19.1809 14.935 17.2599C14.9631 17.2599 14.9912 17.2599 14.9912 17.2308H15.0473C15.3281 17.2308 15.4684 17.4054 15.4684 17.7256C15.4684 17.9875 15.3842 18.2786 15.1877 18.5988C14.542 19.8503 13.7279 20.578 12.7734 20.869L12.9137 22.7027C12.998 23.8087 13.4752 24.6819 14.3455 25.2931C15.1596 25.9044 16.2825 26.1954 17.7143 26.1954C19.904 26.1954 21.5884 25.4387 22.7675 23.8961C22.7675 22.0915 22.2902 16.0956 21.3357 5.90853Z" fill="white"/>
<path d="M33.3231 26.4574C31.4422 26.4574 29.7297 25.9917 28.1856 25.0312C26.6416 24.0707 25.3783 22.6154 24.4238 20.6362C23.4412 18.657 22.964 16.183 22.964 13.2141C22.964 8.93555 24.0027 5.58836 26.0801 3.17256C27.933 1.04782 30.3192 0 33.2388 0C36.4111 0 38.9097 1.22245 40.7344 3.63825C42.5592 6.05405 43.5137 9.25572 43.5137 13.2141C43.5137 17.6091 42.5311 20.9854 40.5379 23.2848C38.7412 25.4096 36.3269 26.4574 33.3231 26.4574ZM33.9688 12.341C33.9688 11.0312 33.9126 10.1289 33.8284 9.6632C33.7442 9.1975 33.5477 8.93555 33.295 8.93555C33.1266 8.93555 32.9862 8.99376 32.8739 9.13929C32.902 9.37214 32.93 9.69231 32.9581 10.0707C32.9862 10.4491 33.0143 11.2931 33.0143 12.5738V13.8545C33.0143 14.7277 32.9862 15.3971 32.9581 15.7755C32.93 16.183 32.902 16.5322 32.8739 16.8233C32.8739 16.9688 32.8458 17.1434 32.8458 17.289C32.9862 17.4054 33.1266 17.4636 33.295 17.4636C33.5477 17.4636 33.7161 17.2308 33.8284 16.736C33.9126 16.2412 33.9688 15.3389 33.9688 14.0582V12.341Z" fill="white"/>
<path d="M53.1709 4.3077L52.6656 16.7069C52.7779 16.736 52.8902 16.7651 53.0025 16.7651C53.3394 16.7651 53.5359 16.4449 53.592 15.7755L54.2939 1.54263C54.6307 1.19336 55.2203 0.87319 56.0906 0.611235C56.9328 0.378387 57.6627 0.261963 58.3364 0.261963C59.9085 0.261963 61.1157 0.698553 61.9017 1.60084C62.6878 2.50313 63.0808 3.66737 63.0808 5.06446C63.0808 5.85032 62.8282 7.65489 62.2948 10.42C61.7614 13.185 61.0315 16.9397 60.0489 21.6549C59.6839 23.3139 58.8979 24.5073 57.6346 25.2349C56.5397 25.8753 55.0799 26.1954 53.2832 26.1954C52.1603 26.1954 51.0654 26.0499 50.0829 25.7297C49.0722 25.4096 48.2581 24.973 47.6686 24.3909C46.8264 22.1206 46.0122 19.0062 45.17 15.0478C44.3278 11.0894 43.7102 7.07277 43.2891 2.99793C44.2717 1.19336 45.8438 0.291069 48.0054 0.291069C50.7286 0.261963 52.4691 1.60084 53.1709 4.3077Z" fill="white"/>
<path d="M72.9626 4.16212V24.3326C72.4854 24.8565 71.8397 25.2931 71.0256 25.6424C70.2115 26.0207 69.2289 26.1954 68.0779 26.1954C66.9269 26.1954 65.9443 25.8752 65.1302 25.2349C64.2038 24.5363 63.7546 23.5758 63.7546 22.2952V2.1247C64.2318 1.60079 64.8775 1.1642 65.6916 0.814924C66.5058 0.465652 67.4883 0.291016 68.6113 0.291016C69.7623 0.291016 70.7449 0.611182 71.5871 1.22241C72.5135 1.92095 72.9626 2.91056 72.9626 4.16212Z" fill="white"/>
<path d="M74.1137 22.2079V2.64866C74.1137 1.97922 74.5628 1.3971 75.4331 0.960508C76.3034 0.523917 77.3421 0.291069 78.5212 0.291069C79.1949 0.291069 79.8125 0.378387 80.4302 0.582129C81.0197 0.785871 81.4689 1.04783 81.8058 1.36799C82.2269 2.03743 82.6199 2.73598 82.9848 3.43452C83.3498 4.13306 84.1358 5.79211 85.3991 8.35344C85.5114 8.35344 85.6237 8.29523 85.708 8.20791C85.7922 8.12059 85.8483 7.97506 85.8483 7.80043C85.8483 7.62579 85.708 7.24741 85.4553 6.6944L83.7428 3.05614V1.97922C84.2762 1.4262 84.9219 1.01872 85.708 0.698553C86.494 0.378387 87.2801 0.261963 88.0942 0.261963C89.4417 0.261963 90.5085 0.553023 91.3226 1.16425C92.2771 1.8919 92.7544 2.99793 92.7544 4.51144V23.0229C92.7544 24.1289 92.3333 24.9439 91.463 25.4678C90.7331 25.9335 89.7505 26.1372 88.5153 26.1372C87.8415 26.1372 87.1678 26.0499 86.5221 25.8753C85.8764 25.7006 85.3711 25.4678 85.0061 25.1767C84.2481 23.9834 83.5182 22.6736 82.7883 21.1892L81.1881 17.8711C80.8793 17.9293 80.739 18.1331 80.739 18.4823C80.739 18.7152 80.8793 19.1227 81.1881 19.763L83.1533 23.7214V24.7692C81.9181 25.7006 80.5425 26.1954 78.9984 26.1954C77.4825 26.1954 76.2753 25.8462 75.405 25.1476C74.5628 24.4491 74.1137 23.4886 74.1137 22.2079Z" fill="white"/>
<path d="M104.152 9.54678H113.501C114.09 10.6237 114.399 11.9335 114.399 13.4761C114.399 15.0187 114.146 16.2703 113.613 17.2308H112.967V23.0811C110.89 25.3222 108.167 26.4283 104.77 26.4283C102.692 26.4283 100.868 25.9626 99.2674 25.0603C97.5268 24.0707 96.1512 22.6445 95.1967 20.7817C94.13 18.7152 93.5966 16.183 93.5966 13.2141C93.5966 8.96466 94.6353 5.64657 96.6846 3.31809C98.6217 1.10603 101.289 0 104.629 0C106.286 0 107.83 0.320166 109.29 0.931393C110.749 1.54262 111.9 2.29938 112.771 3.23077C112.771 4.01663 112.686 4.97713 112.546 6.11227C112.406 7.2474 112.209 8.12058 111.985 8.7027H103.675C103.338 9.13929 103.029 9.77963 102.72 10.6237C102.412 11.4678 102.271 12.4283 102.271 13.5052C102.271 14.9896 102.58 16.1538 103.17 16.9979C103.703 17.7547 104.377 18.1622 105.191 18.1622C105.528 18.1622 105.696 18.0166 105.696 17.7256V17.2308H105.528C104.826 17.2308 104.264 16.8815 103.815 16.2121C103.366 15.5426 103.142 14.5821 103.142 13.3306C103.085 11.7879 103.45 10.5073 104.152 9.54678Z" fill="white"/>
<path d="M123.86 20.6943C123.579 19.5592 122.849 18.5696 121.866 17.9875C120.884 17.3763 119.761 17.2016 118.666 17.4927C117.571 17.7837 116.645 18.4823 116.055 19.501C115.466 20.5197 115.297 21.684 115.578 22.8191C116.055 24.7692 117.768 26.1081 119.677 26.1081C119.761 26.1081 119.845 26.1081 119.957 26.1081C119.536 26.9521 119.115 27.6216 119.115 27.6507L118.891 28.0291L119.284 27.8544C123.495 26.1663 123.916 22.5571 123.916 22.528V22.4407C124.028 21.8295 124 21.2474 123.86 20.6943Z" fill="white"/>
</g>
<defs>
<clipPath id="clip0_179_710">
<rect width="124" height="28" fill="white"/>
</clipPath>
</defs>
</svg>
