<svg width="127" height="27" viewBox="0 0 127 27" fill="none" xmlns="http://www.w3.org/2000/svg">
<path d="M21.3357 5.73909C21.2796 5.05868 21.2235 4.58535 21.1954 4.28953C21.055 2.75121 20.6339 1.62706 19.8759 0.976237C19.146 0.325412 17.995 0 16.4791 0C15.6649 0 14.907 0.118332 14.2051 0.325412C13.5033 0.532493 12.9418 0.798739 12.5207 1.09457L11.3978 6.36033L10.1345 1.06499C9.12384 0.354995 7.86054 0 6.3165 0C4.211 0 2.61082 0.621242 1.51596 1.83414C1.34752 3.22454 1.12293 5.73909 0.814127 9.28904C0.280734 16.1227 0 20.4122 0 22.128C0 23.5184 0.617614 24.613 1.85284 25.3822C2.86348 26.033 4.01449 26.3584 5.30586 26.3584C6.59724 26.3584 7.57981 26.2401 8.28164 26.0034C8.98347 25.7667 9.62916 25.3822 10.2748 24.8792L10.3871 21.1222C9.85375 21.0335 9.32035 20.7968 8.84311 20.3826C8.22549 19.8797 7.6921 19.1697 7.271 18.3118C7.13063 18.016 7.07449 17.7793 7.07449 17.5723C7.07449 17.2764 7.21485 17.1285 7.49559 17.1285H7.57981C8.08513 18.2527 8.61852 19.081 9.20806 19.5247C9.82567 19.9685 10.5275 20.2051 11.3697 20.2051C13.026 20.2051 14.2051 19.2289 14.935 17.2764C14.9631 17.2764 14.9912 17.2764 14.9912 17.2469H15.0473C15.3281 17.2469 15.4684 17.4243 15.4684 17.7498C15.4684 18.016 15.3842 18.3118 15.1877 18.6372C14.542 19.9093 13.7279 20.6489 12.7734 20.9447L12.9137 22.8084C12.998 23.9326 13.4752 24.8201 14.3455 25.4413C15.1596 26.0626 16.2825 26.3584 17.7143 26.3584C19.904 26.3584 21.5884 25.5892 22.7675 24.0213C22.7675 22.1872 22.2902 16.0931 21.3357 5.73909Z" fill="#3A3F45"/>
<path d="M34.1266 26.8909C32.2456 26.8909 30.5332 26.4176 28.9891 25.4413C27.4451 24.4651 26.1818 22.9859 25.2273 20.9743C24.2447 18.9627 23.7675 16.4481 23.7675 13.4307C23.7675 9.08196 24.8062 5.67992 26.8836 3.22454C28.7365 1.06499 31.1227 0 34.0423 0C37.2146 0 39.7132 1.24248 41.5379 3.69787C43.3627 6.15325 44.3172 9.40737 44.3172 13.4307C44.3172 17.8977 43.3346 21.3293 41.3414 23.6663C39.5447 25.8259 37.1304 26.8909 34.1266 26.8909ZM34.7722 12.5432C34.7722 11.2119 34.7161 10.2949 34.6319 9.82153C34.5477 9.34821 34.3511 9.08196 34.0985 9.08196C33.93 9.08196 33.7897 9.14113 33.6774 9.28904C33.7055 9.52571 33.7335 9.85112 33.7616 10.2357C33.7897 10.6203 33.8177 11.4782 33.8177 12.7798V14.0815C33.8177 14.969 33.7897 15.6494 33.7616 16.034C33.7335 16.4481 33.7055 16.8031 33.6774 17.0989C33.6774 17.2469 33.6493 17.4243 33.6493 17.5723C33.7897 17.6906 33.93 17.7498 34.0985 17.7498C34.3511 17.7498 34.5196 17.5131 34.6319 17.0102C34.7161 16.5073 34.7722 15.5902 34.7722 14.2886V12.5432Z" fill="#3A3F45"/>
<path d="M55.199 4.11203L54.6937 16.7144C54.806 16.7439 54.9183 16.7735 55.0306 16.7735C55.3674 16.7735 55.564 16.4481 55.6201 15.7677L56.3219 1.30165C56.6588 0.946654 57.2484 0.621242 58.1186 0.354995C58.9608 0.118332 59.6907 0 60.3645 0C61.9366 0 63.1438 0.443744 63.9298 1.36082C64.7159 2.27789 65.1089 3.4612 65.1089 4.88118C65.1089 5.67992 64.8562 7.51407 64.3228 10.3244C63.7895 13.1348 63.0595 16.951 62.077 21.7435C61.712 23.4297 60.926 24.6426 59.6627 25.3822C58.5678 26.033 57.108 26.3584 55.3113 26.3584C54.1884 26.3584 53.0935 26.2105 52.1109 25.8851C51.1003 25.5597 50.2862 25.1159 49.6966 24.5243C48.8544 22.2168 48.0403 19.0514 47.1981 15.0281C46.3559 11.0049 45.7383 6.92241 45.3172 2.7808C46.2998 0.946654 47.8719 0.0295829 50.0335 0.0295829C52.7566 -5.51025e-09 54.4972 1.36081 55.199 4.11203Z" fill="#3A3F45"/>
<path d="M75.317 3.93453V24.4355C74.8397 24.968 74.194 25.4117 73.3799 25.7667C72.5658 26.1513 71.5832 26.3288 70.4322 26.3288C69.2812 26.3288 68.2986 26.0034 67.4845 25.3526C66.5581 24.6426 66.1089 23.6663 66.1089 22.3647V1.86372C66.5861 1.33123 67.2318 0.887488 68.046 0.532493C68.8601 0.177498 69.8427 0 70.9656 0C72.1166 0 73.0992 0.325412 73.9414 0.946654C74.8678 1.65664 75.317 2.66246 75.317 3.93453Z" fill="#3A3F45"/>
<path d="M76.317 22.3055V2.4258C76.317 1.74539 76.7661 1.15373 77.6364 0.70999C78.5067 0.266246 79.5454 0.0295829 80.7245 0.0295829C81.3982 0.0295829 82.0158 0.118332 82.6335 0.325412C83.223 0.532493 83.6722 0.798739 84.0091 1.12415C84.4302 1.80456 84.8232 2.51455 85.1881 3.22454C85.5531 3.93453 86.3391 5.62076 87.6024 8.22406C87.7147 8.22406 87.827 8.16489 87.9113 8.07614C87.9955 7.98739 88.0516 7.83948 88.0516 7.66198C88.0516 7.48448 87.9113 7.0999 87.6586 6.53783L85.9461 2.83996V1.74539C86.4795 1.18332 87.1252 0.769156 87.9113 0.443744C88.6973 0.118332 89.4834 0 90.2975 0C91.645 0 92.7118 0.295829 93.5259 0.917071C94.4804 1.65664 94.9577 2.7808 94.9577 4.31911V23.1339C94.9577 24.258 94.5366 25.0863 93.6663 25.6188C92.9364 26.0921 91.9538 26.2992 90.7186 26.2992C90.0448 26.2992 89.3711 26.2105 88.7254 26.033C88.0797 25.8555 87.5744 25.6188 87.2094 25.323C86.4514 24.1101 85.7215 22.7789 84.9916 21.2701L83.3914 17.8977C83.0826 17.9568 82.9423 18.1639 82.9423 18.5189C82.9423 18.7556 83.0826 19.1697 83.3914 19.8206L85.3566 23.8438V24.9088C84.1214 25.8555 82.7458 26.3584 81.2017 26.3584C79.6858 26.3584 78.4786 26.0034 77.6083 25.2934C76.7661 24.5834 76.317 23.6072 76.317 22.3055Z" fill="#3A3F45"/>
<path d="M106.513 9.7032H115.862C116.451 10.7978 116.76 12.129 116.76 13.6969C116.76 15.2648 116.507 16.5369 115.974 17.5131H115.328V23.4593C113.251 25.7372 110.528 26.8613 107.131 26.8613C105.053 26.8613 103.229 26.388 101.628 25.4709C99.8879 24.4651 98.5123 23.0155 97.5578 21.1222C96.4911 19.0218 95.9577 16.4481 95.9577 13.4307C95.9577 9.11154 96.9964 5.73909 99.0457 3.37245C100.983 1.12415 103.65 0 106.99 0C108.647 0 110.191 0.325412 111.651 0.946654C113.11 1.5679 114.261 2.33705 115.132 3.28371C115.132 4.08245 115.048 5.05868 114.907 6.21242C114.767 7.36615 114.57 8.25364 114.346 8.8453H106.036C105.699 9.28904 105.39 9.93987 105.082 10.7978C104.773 11.6557 104.632 12.6319 104.632 13.7265C104.632 15.2352 104.941 16.4185 105.531 17.2764C106.064 18.0456 106.738 18.4598 107.552 18.4598C107.889 18.4598 108.057 18.3118 108.057 18.016V17.5131H107.889C107.187 17.5131 106.626 17.1581 106.176 16.4777C105.727 15.7973 105.503 14.8211 105.503 13.549C105.446 11.9811 105.811 10.6794 106.513 9.7032Z" fill="#3A3F45"/>
<path d="M126.174 3.39371C125.893 2.23997 125.163 1.23415 124.181 0.642495C123.198 0.0212537 122.075 -0.156243 120.981 0.139587C119.886 0.435416 118.959 1.14541 118.37 2.18081C117.78 3.21621 117.612 4.39953 117.892 5.55326C118.37 7.53532 120.082 8.89614 121.991 8.89614C122.075 8.89614 122.16 8.89614 122.272 8.89614C121.851 9.75404 121.43 10.4344 121.43 10.464L121.205 10.8486L121.598 10.6711C125.809 8.9553 126.23 5.28702 126.23 5.25743V5.16869C126.343 4.54744 126.314 3.95579 126.174 3.39371Z" fill="#3A3F45"/>
</svg>
